<svg xmlns="http://www.w3.org/2000/svg" xmlns:xlink="http://www.w3.org/1999/xlink" width="650" zoomAndPan="magnify" viewBox="0 0 487.5 347.249998" height="463" preserveAspectRatio="xMidYMid meet" version="1.0"><path fill="#ffb890" d="M 162.132812 261.949219 C 160.109375 266.914062 152.292969 292.027344 152.292969 292.027344 L 182.726562 286.96875 L 185.027344 266.917969 Z M 162.132812 261.949219 " fill-opacity="1" fill-rule="nonzero"/><path fill="#2683ff" d="M 149.71875 268.480469 C 165.625 274.457031 190.175781 270.503906 198.816406 268.480469 C 201.484375 252.566406 231.824219 190.757812 238.539062 192.78125 C 245.25 194.804688 273.109375 253.578125 273.109375 253.578125 C 273.109375 253.578125 206.449219 279.425781 165.625 286.414062 C 124.800781 293.40625 44.164062 287.425781 44.164062 287.425781 C 44.164062 304.351562 39.382812 327.253906 37.269531 332.679688 C 97.863281 346.109375 342.253906 332.128906 387.214844 285.863281 C 387.488281 285.402344 320.738281 229.664062 319.816406 228.652344 C 318.804688 227.640625 282.027344 129.964844 242.675781 123.523438 C 203.507812 117.085938 157.71875 234.632812 149.71875 268.480469 Z M 149.71875 268.480469 " fill-opacity="1" fill-rule="nonzero"/><path fill="#282421" d="M 253.710938 142.472656 C 246.261719 142.011719 189.992188 125.546875 199.921875 100.621094 C 209.851562 75.695312 236.882812 84.527344 248.285156 89.585938 C 259.683594 94.644531 310.4375 117.546875 331.3125 114.511719 C 352.183594 111.566406 359.8125 103.015625 384.363281 108.257812 C 408.914062 113.5 424.269531 116.902344 445.507812 150.566406 C 466.746094 184.230469 486.605469 263.878906 459.667969 273.8125 C 432.820312 283.746094 413.601562 247.875 413.601562 247.875 C 409.832031 264.800781 400.914062 284.757812 393.925781 286.691406 C 386.9375 288.714844 317.796875 259.191406 309.058594 235.09375 C 321.75 221.480469 331.679688 179.078125 326.253906 169.238281 C 321.011719 159.488281 282.855469 144.21875 253.710938 142.472656 Z M 253.710938 142.472656 " fill-opacity="1" fill-rule="nonzero"/><path fill="#fafafa" d="M 47.75 328.722656 C 47.75 328.722656 34.785156 332.679688 21.914062 329.183594 C 21.914062 329.183594 2.054688 254.039062 21.914062 222.214844 C 34.878906 225.160156 33.867188 285.957031 47.476562 292.117188 Z M 279.269531 156.175781 C 298.761719 171.8125 326.4375 169.421875 326.4375 169.421875 L 341.332031 115.613281 C 334.34375 108.625 310.4375 100.714844 297.566406 104.667969 C 297.566406 104.667969 289.566406 128.582031 288.648438 130.515625 Z M 315.128906 98.140625 C 314.761719 103.015625 316.785156 101.265625 319.082031 98.324219 C 322.023438 94.734375 324.230469 90.503906 325.703125 86.089844 C 327.355469 80.9375 327.816406 74.777344 324.414062 70.636719 C 320.828125 66.222656 314.300781 65.488281 308.601562 66.316406 C 302.898438 67.144531 297.292969 69.074219 291.589844 68.429688 C 289.382812 68.15625 286.808594 67.328125 286.074219 65.121094 C 285.246094 62.726562 287.175781 60.335938 288.832031 58.496094 C 291.222656 55.921875 293.613281 53.4375 296.003906 50.863281 C 297.566406 49.207031 299.222656 47.183594 298.671875 45.070312 C 297.933594 42.125 293.796875 41.574219 290.945312 42.585938 C 288.097656 43.597656 285.15625 45.4375 282.210938 44.792969 C 278.351562 43.964844 276.417969 39.089844 277.429688 35.226562 C 278.441406 31.363281 281.570312 28.421875 284.695312 25.9375 C 287.820312 23.453125 291.222656 21.0625 293.246094 17.660156 C 295.269531 14.257812 295.453125 9.289062 292.511719 6.621094 C 291.039062 5.335938 289.109375 4.691406 287.175781 4.230469 C 267.683594 0 245.984375 7.816406 233.664062 23.730469 C 231.550781 26.488281 229.621094 29.707031 229.894531 33.113281 C 230.171875 36.421875 232.5625 39.273438 235.503906 40.835938 C 238.445312 42.402344 241.847656 42.769531 245.15625 42.675781 C 248.101562 42.585938 251.042969 42.125 253.984375 42.585938 C 256.925781 43.046875 259.871094 44.609375 260.878906 47.367188 C 262.445312 51.324219 259.59375 55.554688 257.019531 58.957031 C 254.535156 62.359375 252.144531 67.144531 254.628906 70.636719 C 255.640625 72.109375 257.386719 72.9375 259.132812 73.582031 C 271.636719 78.273438 285.429688 73.949219 298.761719 72.84375 C 302.898438 72.476562 307.222656 72.476562 310.714844 74.683594 C 319.542969 80.203125 315.679688 90.046875 315.128906 98.140625 Z M 315.128906 98.140625 " fill-opacity="1" fill-rule="nonzero"/><path fill="#282421" d="M 409.742188 261.855469 C 407.625 256.796875 398.800781 227.550781 407.992188 212.191406 C 416.914062 197.289062 435.851562 197.289062 447.804688 210.167969 C 432.910156 202.164062 420.957031 201.796875 412.957031 215.132812 C 406.980469 225.066406 412.316406 245.761719 413.695312 247.96875 C 413.511719 254.039062 410.9375 259.007812 409.742188 261.855469 Z M 400.179688 172.640625 L 404.589844 145.78125 L 360.550781 145.78125 C 360.550781 145.78125 359.90625 206.855469 360.550781 206.578125 C 361.195312 206.304688 397.972656 208.972656 397.972656 208.972656 Z M 400.179688 172.640625 " fill-opacity="1" fill-rule="nonzero"/><path fill="#ffb890" d="M 373.054688 46.632812 C 384.363281 45.988281 391.628906 59.324219 391.996094 69.257812 C 394.753906 66.773438 399.351562 67.328125 401.375 70.546875 C 403.394531 73.671875 402.660156 77.996094 400.636719 81.125 C 398.613281 84.25 395.488281 86.457031 392.363281 88.574219 C 390.433594 99.242188 394.476562 110.832031 402.570312 118.097656 C 398.523438 123.339844 393.558594 128.03125 387.488281 130.699219 C 381.421875 133.367188 374.15625 133.734375 368.273438 130.605469 C 362.480469 127.480469 358.617188 120.398438 360.183594 113.960938 C 364.226562 112.394531 367.355469 108.625 368.089844 104.394531 C 354.113281 99.886719 344.917969 83.976562 348.136719 69.625 C 350.621094 58.679688 361.46875 47.277344 373.054688 46.632812 Z M 402.753906 155.992188 L 400.179688 172.730469 C 400.179688 172.730469 392.269531 173.285156 388.5 171.8125 C 384.730469 170.339844 380.777344 168.59375 376.824219 169.605469 C 372.960938 170.707031 370.296875 176.226562 373.332031 178.800781 C 370.664062 177.789062 367.355469 179.445312 366.433594 182.207031 C 365.605469 184.964844 367.445312 188.183594 370.203125 188.828125 C 368.457031 189.746094 367.539062 192.046875 368.179688 193.886719 C 368.824219 195.726562 370.847656 197.015625 372.871094 196.738281 C 371.765625 198.027344 370.753906 199.3125 369.652344 200.601562 C 380.5 207.960938 395.582031 208.601562 406.980469 202.074219 C 407.902344 213.570312 410.753906 224.976562 415.441406 235.550781 C 417.097656 239.230469 418.933594 242.910156 422.152344 245.300781 C 427.210938 249.164062 434.933594 248.703125 439.808594 244.566406 C 444.679688 240.519531 446.609375 233.34375 444.773438 227.273438 C 442.75 220.375 436.957031 215.5 432.082031 210.167969 C 425.09375 202.441406 418.382812 192.691406 417.738281 182.113281 C 416.542969 161.511719 402.753906 155.992188 402.753906 155.992188 Z M 254.90625 101.359375 C 249.480469 97.585938 243.136719 92.621094 236.882812 94.917969 C 231.367188 96.941406 229.25 103.472656 227.871094 109.269531 C 226.675781 114.328125 225.480469 119.84375 228.054688 124.351562 C 230.722656 128.949219 236.332031 130.882812 241.664062 131.800781 C 254.078125 133.917969 266.949219 133 279.085938 129.410156 C 275.039062 135.023438 275.683594 143.574219 280.558594 148.449219 C 285.429688 153.324219 293.890625 154.152344 299.589844 150.199219 C 302.808594 149.554688 304.832031 145.597656 303.542969 142.65625 C 306.300781 143.300781 309.335938 140.816406 309.246094 138.058594 C 309.152344 135.296875 306.117188 132.90625 303.453125 133.550781 C 306.667969 133.183594 307.039062 128.214844 304.921875 125.730469 C 302.808594 123.25 299.40625 122.144531 297.015625 119.9375 C 293.0625 116.167969 296.738281 114.695312 291.589844 112.945312 C 287.820312 111.660156 282.578125 112.394531 278.535156 111.566406 C 269.984375 109.726562 261.984375 106.324219 254.90625 101.359375 Z M 254.90625 101.359375 " fill-opacity="1" fill-rule="nonzero"/><path fill="#2683ff" d="M 378.480469 46.355469 C 377.835938 46.355469 377.191406 46.539062 376.730469 46.90625 C 376.089844 47.367188 375.8125 48.105469 375.261719 48.65625 C 373.699219 50.21875 371.398438 48.289062 370.203125 47.183594 C 369.101562 45.988281 367.8125 44.332031 366.066406 44.148438 C 364.871094 44.058594 363.859375 44.699219 363.582031 45.894531 C 362.757812 48.746094 365.332031 50.128906 366.894531 51.964844 C 361.652344 52.425781 357.238281 48.289062 352.550781 46.449219 C 348.964844 45.070312 343.632812 44.976562 341.515625 48.839844 C 341.332031 49.207031 341.792969 49.574219 342.070312 49.300781 C 345.65625 45.621094 350.894531 47.09375 354.847656 49.300781 C 359.078125 51.597656 363.398438 54.542969 368.363281 53.4375 C 368.917969 53.347656 369.007812 52.703125 368.824219 52.242188 C 368.273438 51.140625 367.355469 50.3125 366.433594 49.484375 C 365.605469 48.746094 364.6875 47.734375 364.964844 46.539062 C 365.421875 44.515625 367.90625 47.09375 368.550781 47.828125 C 369.46875 48.746094 370.386719 49.757812 371.582031 50.3125 C 372.503906 50.769531 373.605469 50.953125 374.617188 50.679688 C 375.722656 50.402344 376.273438 49.667969 376.914062 48.839844 C 377.925781 47.460938 379.675781 47.828125 380.6875 48.929688 C 381.789062 50.035156 382.066406 51.78125 382.339844 53.253906 C 382.523438 54.082031 383.8125 53.714844 383.628906 52.886719 C 383.167969 49.941406 381.972656 46.265625 378.480469 46.355469 Z M 378.480469 46.355469 " fill-opacity="1" fill-rule="nonzero"/><path fill="#282421" d="M 371.765625 87.195312 C 369.375 88.023438 366.894531 88.574219 364.503906 89.21875 C 363.769531 89.402344 363.03125 88.847656 363.03125 88.113281 C 363.03125 82.777344 363.308594 77.351562 363.582031 72.019531 C 363.582031 71.191406 364.777344 71.191406 364.777344 72.019531 C 365.054688 76.890625 365.238281 81.765625 365.238281 86.640625 C 367.167969 86.089844 369.101562 85.539062 371.125 85.078125 C 372.503906 84.710938 373.054688 86.734375 371.765625 87.195312 Z M 394.753906 81.859375 C 395.304688 82.6875 396.5 81.949219 396.039062 81.125 C 395.304688 79.835938 395.121094 78.363281 395.671875 76.890625 C 396.132812 75.605469 397.144531 74.59375 398.339844 73.949219 C 398.800781 73.671875 398.523438 72.9375 397.972656 73.03125 C 394.292969 74.042969 392.824219 78.824219 394.753906 81.859375 Z M 350.34375 63.648438 C 364.226562 62.910156 376.824219 54.175781 381.511719 59.050781 C 386.109375 63.921875 389.878906 75.878906 389.878906 75.878906 L 391.996094 69.257812 C 395.027344 55.921875 397.878906 43.964844 391.996094 39.550781 C 386.109375 35.042969 387.949219 44.058594 375.078125 39.550781 C 362.203125 35.042969 362.296875 32.46875 350.25 38.261719 C 338.300781 44.058594 332.324219 30.078125 325.335938 39.089844 C 318.4375 47.917969 331.402344 67.328125 350.34375 63.648438 Z M 373.882812 92.4375 C 373.699219 92.527344 373.515625 92.527344 373.332031 92.621094 C 372.960938 92.710938 372.503906 92.804688 372.136719 92.894531 C 372.136719 92.894531 371.949219 92.894531 371.949219 92.894531 C 371.859375 92.894531 371.765625 92.894531 371.765625 92.894531 C 371.582031 92.894531 371.398438 92.894531 371.125 92.894531 C 370.664062 92.894531 370.296875 92.894531 369.835938 92.894531 C 369.101562 92.804688 368.550781 93.539062 368.550781 94.183594 C 368.550781 94.917969 369.101562 95.378906 369.835938 95.472656 C 373.789062 95.929688 377.742188 94.183594 380.132812 91.058594 C 380.5 90.503906 380.316406 89.675781 379.765625 89.308594 C 379.304688 88.941406 378.386719 88.847656 378.019531 89.402344 C 376.917969 90.78125 375.90625 91.609375 374.339844 92.253906 C 374.339844 92.253906 373.972656 92.34375 373.882812 92.4375 Z M 288.742188 147.714844 C 290.027344 148.542969 291.5 149.1875 292.96875 149.738281 C 294.441406 150.199219 296.1875 150.65625 297.75 150.472656 C 298.488281 150.382812 298.394531 149.1875 297.75 149.09375 C 297.105469 148.910156 296.371094 149.003906 295.636719 148.816406 C 294.902344 148.726562 294.164062 148.542969 293.429688 148.265625 C 292.050781 147.804688 290.671875 147.253906 289.476562 146.425781 C 286.992188 144.863281 284.878906 142.65625 283.40625 140.171875 C 283.132812 139.621094 282.394531 140.082031 282.671875 140.632812 C 283.867188 143.574219 285.980469 145.96875 288.742188 147.714844 Z M 304.371094 142.195312 C 302.714844 141.644531 300.878906 141.367188 299.128906 140.90625 C 297.382812 140.449219 295.542969 139.804688 293.890625 138.976562 C 291.039062 137.503906 288.464844 135.480469 286.992188 132.628906 C 286.808594 132.261719 286.164062 132.539062 286.257812 132.90625 C 287.546875 136.035156 290.027344 138.425781 292.96875 139.988281 C 294.625 140.90625 296.464844 141.550781 298.300781 142.105469 C 300.234375 142.65625 302.257812 143.300781 304.1875 143.484375 C 305.015625 143.574219 305.015625 142.378906 304.371094 142.195312 Z M 291.589844 128.125 C 292.695312 129.226562 293.890625 130.238281 295.175781 131.066406 C 297.75 132.722656 300.785156 133.824219 303.910156 134.195312 C 304.921875 134.285156 304.921875 132.628906 303.910156 132.539062 C 301.152344 132.261719 298.394531 131.25 296.003906 129.6875 C 294.808594 128.949219 293.796875 128.03125 292.785156 127.113281 C 291.773438 126.101562 290.945312 124.902344 289.9375 123.890625 C 289.566406 123.523438 288.832031 123.890625 289.015625 124.445312 C 289.476562 125.730469 290.578125 127.019531 291.589844 128.125 Z M 393.835938 181.285156 C 392.179688 181.5625 390.617188 181.929688 388.960938 182.023438 C 387.304688 182.113281 385.652344 182.023438 383.996094 181.835938 C 382.433594 181.5625 380.777344 181.195312 379.308594 180.640625 C 378.570312 180.367188 377.835938 180.089844 377.101562 179.8125 C 376.363281 179.445312 375.628906 178.988281 374.894531 178.800781 C 374.339844 178.710938 373.972656 179.261719 374.339844 179.722656 C 375.445312 180.824219 377.285156 181.5625 378.753906 182.113281 C 380.410156 182.757812 382.15625 183.125 383.902344 183.402344 C 387.214844 183.859375 391.074219 183.953125 394.292969 182.847656 C 395.214844 182.480469 394.753906 181.101562 393.835938 181.285156 Z M 370.847656 189.289062 C 374.066406 191.128906 377.652344 192.230469 381.328125 192.597656 C 384.914062 192.96875 389.054688 192.78125 392.453125 191.496094 C 393.464844 191.128906 393.097656 189.5625 391.996094 189.839844 C 390.25 190.207031 388.683594 190.757812 386.9375 190.945312 C 385.191406 191.128906 383.445312 191.21875 381.695312 191.128906 C 378.113281 190.945312 374.617188 190.023438 371.308594 188.644531 C 370.753906 188.277344 370.296875 189.011719 370.847656 189.289062 Z M 393.28125 197.65625 C 392.453125 197.933594 391.71875 198.394531 390.890625 198.761719 C 390.0625 199.128906 389.238281 199.3125 388.410156 199.589844 C 386.753906 199.957031 385.097656 200.234375 383.351562 200.234375 C 379.859375 200.234375 376.273438 199.40625 373.144531 197.839844 C 372.6875 197.566406 372.320312 198.300781 372.6875 198.578125 C 375.90625 200.691406 379.492188 201.796875 383.351562 201.796875 C 385.191406 201.796875 387.03125 201.613281 388.867188 201.152344 C 390.617188 200.691406 392.730469 200.140625 394.109375 198.945312 C 394.570312 198.394531 393.925781 197.472656 393.28125 197.65625 Z M 335.722656 116.074219 C 337.289062 110.648438 306.394531 103.75 302.441406 107.703125 C 297.75 112.394531 334.160156 121.410156 335.722656 116.074219 Z M 407.441406 120.582031 C 405.511719 122.144531 403.765625 123.890625 401.925781 125.457031 C 399.996094 127.113281 397.972656 128.582031 395.855469 129.964844 C 391.71875 132.628906 387.214844 134.835938 382.339844 135.847656 C 373.238281 137.78125 362.664062 135.757812 357.238281 127.570312 C 354.480469 123.523438 353.285156 118.648438 354.390625 113.773438 C 354.480469 113.222656 353.746094 112.945312 353.5625 113.5 C 350.804688 122.328125 356.597656 131.894531 364.503906 135.757812 C 374.066406 140.539062 385.558594 138.242188 394.476562 133.089844 C 397.144531 131.617188 399.625 129.777344 402.015625 127.9375 C 404.40625 126.007812 406.980469 124.078125 408.914062 121.777344 C 409.648438 121.042969 408.363281 119.84375 407.441406 120.582031 Z M 451.023438 229.941406 C 449.367188 223.503906 444.957031 217.617188 439.164062 214.398438 C 437.875 213.660156 436.773438 215.59375 438.058594 216.328125 C 442.75 219.179688 446.609375 223.136719 448.542969 228.285156 C 450.472656 233.34375 450.378906 238.863281 448.265625 243.828125 C 446.058594 248.886719 441.828125 252.75 436.589844 254.222656 C 431.625 255.601562 426.015625 254.960938 421.878906 251.738281 C 417.28125 248.246094 414.796875 242.359375 415.441406 236.65625 C 415.53125 236.105469 414.523438 235.917969 414.429688 236.472656 C 413.234375 241.898438 415.257812 247.417969 419.027344 251.371094 C 423.074219 255.511719 428.867188 257.167969 434.472656 256.339844 C 446.886719 254.589844 453.964844 241.621094 451.023438 229.941406 Z M 419.117188 169.144531 C 420.039062 166.476562 420.589844 163.808594 421.601562 161.234375 C 422.613281 158.566406 423.898438 156.085938 425.371094 153.691406 C 426.84375 151.394531 428.496094 149.1875 430.429688 147.164062 C 431.441406 146.152344 432.453125 145.140625 433.460938 144.21875 C 434.472656 143.300781 435.761719 142.472656 436.773438 141.550781 C 437.507812 140.816406 436.589844 139.621094 435.667969 140.082031 C 433.1875 141.460938 430.980469 143.757812 429.140625 145.875 C 427.117188 147.992188 425.371094 150.382812 423.808594 152.863281 C 422.246094 155.347656 420.957031 158.015625 419.945312 160.683594 C 418.933594 163.351562 418.015625 166.292969 417.921875 169.144531 C 417.832031 169.695312 418.933594 169.789062 419.117188 169.144531 Z M 402.9375 269.765625 C 377.925781 268.019531 353.285156 258.914062 332.875 244.289062 C 327.082031 240.152344 321.75 235.550781 316.601562 230.585938 C 315.863281 229.847656 314.761719 230.953125 315.496094 231.6875 C 333.242188 249.992188 357.054688 262.59375 381.882812 268.296875 C 388.777344 269.859375 395.855469 270.777344 403.027344 271.238281 C 403.855469 271.332031 403.855469 269.859375 402.9375 269.765625 Z M 226.492188 95.5625 C 230.171875 92.804688 234.585938 91.976562 239.089844 92.804688 C 239.457031 92.894531 239.734375 92.4375 239.367188 92.160156 C 235.6875 89.953125 231 90.78125 227.414062 92.710938 C 223.550781 94.734375 220.792969 98.414062 218.953125 102.277344 C 215.367188 110.097656 214.449219 120.855469 221.160156 127.296875 C 224.101562 130.148438 229.25 132.539062 233.390625 130.976562 C 234.125 130.699219 234.125 129.320312 233.207031 129.410156 C 231.457031 129.59375 229.710938 129.6875 227.964844 129.226562 C 226.21875 128.765625 224.652344 127.9375 223.273438 126.742188 C 220.242188 124.261719 218.585938 120.582031 218.125 116.71875 C 217.390625 109.269531 220.425781 100.164062 226.492188 95.5625 Z M 238.539062 192.78125 C 242.765625 194.714844 248.285156 205.75 248.285156 205.75 L 246.167969 175.953125 C 244.238281 180.824219 238.539062 192.78125 238.539062 192.78125 Z M 25.5 308.398438 C 23.84375 302.050781 22.558594 295.519531 21.730469 288.992188 C 20.074219 275.835938 19.984375 262.59375 21.636719 249.441406 C 22.558594 241.992188 24.304688 234.722656 25.867188 227.367188 C 26.050781 226.445312 24.765625 226.078125 24.398438 227 C 22.28125 233.4375 21.085938 240.335938 20.167969 247.050781 C 19.246094 253.578125 18.789062 260.203125 18.695312 266.824219 C 18.511719 280.160156 20.074219 293.679688 23.203125 306.742188 C 24.949219 314.007812 26.972656 321.367188 30.097656 328.171875 C 30.558594 329.183594 32.210938 328.449219 31.84375 327.4375 C 29.636719 321.089844 27.246094 314.929688 25.5 308.398438 Z M 36.351562 267.929688 C 36.992188 267.285156 37.820312 266.824219 38.1875 265.996094 C 38.554688 265.261719 37.820312 264.339844 36.992188 264.800781 C 36.257812 265.261719 35.796875 266.089844 35.246094 266.730469 C 34.695312 267.375 34.144531 267.929688 33.589844 268.570312 C 33.039062 269.214844 32.488281 269.765625 31.9375 270.410156 C 31.660156 270.777344 31.292969 271.054688 31.109375 271.421875 C 31.015625 271.605469 30.925781 271.789062 30.832031 271.976562 C 30.742188 272.160156 30.558594 272.34375 30.375 272.617188 C 30.097656 272.894531 30.558594 273.355469 30.832031 273.078125 C 31.015625 272.894531 31.199219 272.800781 31.292969 272.617188 C 31.476562 272.527344 31.660156 272.433594 31.753906 272.34375 C 32.121094 272.160156 32.394531 271.789062 32.765625 271.515625 C 33.40625 270.964844 33.960938 270.320312 34.511719 269.675781 C 35.15625 269.125 35.796875 268.480469 36.351562 267.929688 Z M 42.695312 280.160156 C 41.957031 280.621094 41.222656 281.171875 40.578125 281.722656 C 39.9375 282.277344 39.292969 282.828125 38.742188 283.472656 C 37.546875 284.667969 36.441406 286.046875 35.523438 287.519531 C 35.246094 287.980469 35.429688 288.53125 35.890625 288.804688 C 36.351562 289.082031 36.808594 288.898438 37.175781 288.4375 C 38.097656 287.152344 39.109375 285.957031 40.210938 284.851562 C 40.761719 284.300781 41.316406 283.746094 41.957031 283.289062 C 42.601562 282.734375 43.246094 282.367188 43.890625 281.816406 C 44.257812 281.539062 44.257812 280.894531 43.980469 280.527344 C 43.613281 280.070312 43.0625 279.882812 42.695312 280.160156 Z M 40.578125 274.824219 C 40.945312 274.550781 40.945312 273.90625 40.578125 273.539062 C 40.210938 273.171875 39.660156 273.171875 39.292969 273.539062 C 38.28125 274.640625 37.175781 275.652344 36.164062 276.664062 C 35.15625 277.675781 34.050781 278.78125 33.132812 279.882812 C 32.949219 280.070312 32.949219 280.34375 33.132812 280.621094 C 33.316406 280.804688 33.589844 280.894531 33.867188 280.804688 C 35.0625 279.882812 36.257812 278.871094 37.359375 277.859375 C 38.371094 276.847656 39.382812 275.835938 40.578125 274.824219 Z M 353.835938 275.929688 C 352.640625 276.023438 351.355469 276.757812 350.34375 277.308594 C 349.242188 277.953125 348.320312 278.597656 347.308594 279.425781 C 345.195312 281.082031 343.449219 283.105469 341.886719 285.3125 C 340.414062 287.425781 339.21875 289.816406 338.484375 292.300781 C 337.746094 294.691406 336.917969 297.636719 337.289062 300.210938 C 337.378906 301.132812 339.035156 301.683594 339.21875 300.488281 C 339.585938 298.097656 339.585938 295.703125 340.320312 293.40625 C 341.058594 291.015625 342.070312 288.714844 343.449219 286.691406 C 344.828125 284.667969 346.390625 282.828125 348.230469 281.265625 C 349.148438 280.4375 350.160156 279.699219 351.171875 279.058594 C 352.183594 278.414062 353.378906 277.953125 354.207031 277.125 C 354.664062 276.664062 354.390625 275.929688 353.835938 275.929688 Z M 49.128906 291.839844 C 48.394531 298.003906 48.210938 304.167969 47.566406 310.328125 C 46.921875 316.492188 46.003906 322.652344 44.992188 328.816406 C 44.71875 330.195312 46.832031 330.746094 47.109375 329.367188 C 48.210938 323.207031 49.128906 317.042969 49.773438 310.789062 C 50.417969 304.535156 51.246094 298.1875 51.0625 291.839844 C 50.96875 290.644531 49.222656 290.738281 49.128906 291.839844 Z M 197.53125 262.410156 C 190.542969 263.054688 183.554688 263.328125 176.566406 263.328125 C 173.164062 263.328125 169.761719 263.144531 166.269531 262.960938 C 162.683594 262.777344 159.097656 262.132812 155.511719 262.226562 C 154.683594 262.226562 154.5 263.421875 155.328125 263.605469 C 158.636719 264.433594 162.316406 264.523438 165.71875 264.800781 C 169.210938 265.078125 172.703125 265.167969 176.199219 265.261719 C 183.277344 265.351562 190.359375 265.078125 197.4375 264.433594 C 198.816406 264.25 198.816406 262.316406 197.53125 262.410156 Z M 319.910156 164.546875 C 321.75 164.453125 323.3125 163.71875 324.230469 162.0625 C 325.242188 160.40625 325.609375 158.292969 326.070312 156.359375 C 328.738281 146.886719 331.402344 137.414062 334.160156 128.03125 C 334.4375 127.113281 332.964844 126.652344 332.691406 127.664062 C 330.117188 136.21875 327.542969 144.769531 324.96875 153.324219 C 324.324219 155.347656 323.773438 157.371094 323.128906 159.394531 C 322.851562 160.222656 322.578125 161.144531 321.933594 161.695312 C 321.195312 162.429688 320.09375 162.429688 319.082031 162.429688 C 316.96875 162.523438 314.945312 162.429688 312.828125 162.246094 C 310.625 162.0625 308.417969 161.511719 306.210938 161.511719 C 305.105469 161.511719 305.015625 162.984375 305.933594 163.351562 C 308.050781 164.179688 310.53125 164.269531 312.828125 164.453125 C 315.21875 164.546875 317.609375 164.730469 319.910156 164.546875 Z M 385.558594 100.164062 C 381.605469 104.117188 372.59375 106.140625 368.089844 104.300781 C 367.078125 107.613281 366.066406 109.636719 364.410156 111.109375 C 367.355469 113.132812 382.617188 110.1875 385.558594 100.164062 Z M 304.554688 238.957031 C 302.164062 238.769531 299.40625 239.507812 297.105469 240.058594 C 294.625 240.609375 292.234375 241.4375 289.84375 242.359375 C 285.339844 244.199219 280.648438 246.773438 277.15625 250.269531 C 276.417969 251.003906 277.339844 252.292969 278.257812 251.648438 C 280.28125 250.269531 282.121094 248.796875 284.234375 247.507812 C 286.351562 246.222656 288.464844 245.117188 290.671875 244.199219 C 292.878906 243.277344 295.175781 242.542969 297.476562 241.898438 C 298.671875 241.621094 299.867188 241.347656 301.0625 241.164062 C 302.347656 240.980469 303.636719 240.886719 304.832031 240.609375 C 305.75 240.425781 305.472656 239.046875 304.554688 238.957031 Z M 304.554688 238.957031 " fill-opacity="1" fill-rule="nonzero"/></svg>